<?xml version="1.0" encoding="UTF-8" standalone="no"?>
<svg width="112px" height="75px" viewBox="0 0 112 75" version="1.1" xmlns="http://www.w3.org/2000/svg" xmlns:xlink="http://www.w3.org/1999/xlink">
    <!-- Generator: Sketch 3.7.1 (28215) - http://www.bohemiancoding.com/sketch -->
    <title>brainpup-mainicon</title>
    <desc>Created with Sketch.</desc>
    <defs></defs>
    <g id="Page-1" stroke="none" stroke-width="1" fill="none" fill-rule="evenodd">
        <g id="Artboard-1" transform="translate(-18.000000, -15.000000)">
            <g id="brainpup-mainicon" transform="translate(18.000000, 15.000000)">
                <rect id="XMLID_30_" fill="#FAFAFA" x="12.067" y="59.759" width="6.519" height="11.32"></rect>
                <g id="XMLID_34_" transform="translate(27.000000, 57.000000)" fill="#FFFFFF">
                    <polyline id="XMLID_27_" points="0.485 9.219 0.485 13.778 1.638 13.778 1.638 9.219"></polyline>
                    <g id="XMLID_35_">
                        <path d="M9.547,5.169 C9.063,4.688 8.5,4.308 7.856,4.03 C7.212,3.754 6.523,3.615 5.789,3.615 C5.053,3.615 4.3,3.811 3.527,4.205 C2.753,4.599 2.187,5.085 1.826,5.663 L1.826,0.254 L0.474,0.254 L0.474,8.931 C0.474,9.665 0.611,10.354 0.889,10.998 C1.165,11.644 1.545,12.206 2.028,12.689 C2.512,13.173 3.075,13.552 3.719,13.828 C4.363,14.106 5.052,14.246 5.788,14.246 C6.522,14.246 7.211,14.107 7.855,13.828 C8.499,13.552 9.063,13.172 9.546,12.689 C10.03,12.205 10.409,11.644 10.685,10.998 C10.963,10.354 11.1,9.665 11.1,8.931 C11.1,8.197 10.963,7.506 10.685,6.862 C10.411,6.216 10.031,5.653 9.547,5.169 L9.547,5.169 Z M9.441,10.465 C9.233,10.949 8.95,11.371 8.589,11.732 C8.228,12.093 7.808,12.376 7.325,12.581 C6.841,12.789 6.329,12.89 5.789,12.89 C5.246,12.89 4.734,12.789 4.251,12.581 C3.77,12.376 3.347,12.093 2.987,11.732 C2.626,11.371 2.343,10.949 2.135,10.465 C1.93,9.981 1.826,9.469 1.826,8.929 C1.826,8.386 1.93,7.874 2.135,7.393 C2.343,6.909 2.626,6.487 2.987,6.126 C3.348,5.765 3.77,5.482 4.251,5.277 C4.735,5.069 5.247,4.966 5.789,4.966 C6.329,4.966 6.841,5.07 7.325,5.277 C7.809,5.482 8.229,5.765 8.589,6.126 C8.95,6.487 9.233,6.909 9.441,7.393 C9.646,7.874 9.75,8.386 9.75,8.929 C9.75,9.47 9.646,9.982 9.441,10.465 L9.441,10.465 Z" id="XMLID_50_"></path>
                        <path d="M15.172,5.661 C15.097,5.739 15.023,5.843 14.96,5.97 L14.96,4.135 L13.627,4.135 L13.646,13.798 L14.979,13.798 L14.979,9.41 C14.979,8.87 15.083,8.358 15.288,7.874 C15.496,7.39 15.779,6.97 16.14,6.61 C16.501,6.249 16.923,5.966 17.404,5.758 C17.888,5.553 18.4,5.449 18.942,5.449 L18.942,4.097 C18.206,4.097 17.517,4.234 16.873,4.512 C16.229,4.788 15.663,5.173 15.172,5.661 L15.172,5.661 Z" id="XMLID_19_"></path>
                        <path d="M28.813,5.187 C28.329,4.706 27.766,4.326 27.122,4.048 C26.478,3.772 25.789,3.633 25.055,3.633 C24.319,3.633 23.63,3.772 22.986,4.048 C22.342,4.326 21.778,4.706 21.295,5.187 C20.814,5.671 20.432,6.234 20.156,6.878 C19.88,7.522 19.741,8.213 19.741,8.947 C19.741,9.681 19.88,10.37 20.156,11.014 C20.432,11.66 20.814,12.222 21.295,12.705 C21.779,13.189 22.342,13.568 22.986,13.844 C23.63,14.122 24.319,14.262 25.055,14.262 C25.789,14.262 26.478,14.123 27.122,13.844 C27.766,13.568 28.327,13.191 28.804,12.714 C28.882,12.636 28.953,12.568 29.016,12.502 L29.016,13.797 L30.37,13.797 L30.37,8.947 C30.37,8.213 30.231,7.522 29.952,6.878 C29.677,6.234 29.297,5.67 28.813,5.187 L28.813,5.187 Z M29.016,9.122 C28.99,9.599 28.886,10.056 28.707,10.493 C28.502,10.97 28.216,11.389 27.858,11.75 C27.497,12.111 27.075,12.394 26.591,12.599 C26.107,12.807 25.595,12.908 25.055,12.908 C24.512,12.908 24,12.807 23.517,12.599 C23.036,12.394 22.613,12.111 22.253,11.75 C21.892,11.389 21.609,10.967 21.401,10.483 C21.196,9.999 21.092,9.487 21.092,8.947 C21.092,8.404 21.196,7.892 21.401,7.411 C21.609,6.927 21.892,6.505 22.253,6.144 C22.614,5.783 23.036,5.5 23.517,5.295 C24.001,5.087 24.513,4.984 25.055,4.984 C25.595,4.984 26.107,5.088 26.591,5.295 C27.075,5.5 27.497,5.783 27.858,6.144 C28.217,6.505 28.502,6.927 28.707,7.411 C28.912,7.892 29.016,8.404 29.016,8.947 L29.016,9.122 L29.016,9.122 Z" id="XMLID_46_"></path>
                        <path d="M34.352,0.252 C34.121,0.252 33.927,0.327 33.772,0.483 C33.619,0.636 33.541,0.83 33.541,1.063 C33.541,1.294 33.619,1.488 33.772,1.641 C33.928,1.797 34.121,1.875 34.352,1.875 C34.583,1.875 34.777,1.797 34.932,1.641 C35.085,1.488 35.163,1.294 35.163,1.063 C35.163,0.829 35.085,0.636 34.932,0.483 C34.776,0.327 34.583,0.252 34.352,0.252 L34.352,0.252 Z" id="XMLID_16_"></path>
                        <rect id="XMLID_15_" x="33.656" y="4.116" width="1.352" height="9.663"></rect>
                        <path d="M46.4,6.291 C46.169,5.755 45.857,5.291 45.463,4.899 C45.071,4.505 44.609,4.194 44.081,3.96 C43.553,3.729 42.993,3.613 42.401,3.613 C42.104,3.613 41.807,3.646 41.512,3.71 C41.215,3.774 40.934,3.868 40.672,3.991 C40.408,4.114 40.165,4.26 39.945,4.434 C39.726,4.609 39.553,4.8 39.424,5.005 L39.424,4.116 L38.072,4.116 L38.072,13.779 L39.443,13.779 L39.424,7.98 C39.424,7.607 39.504,7.239 39.667,6.878 C39.827,6.519 40.042,6.199 40.313,5.923 C40.584,5.647 40.898,5.423 41.259,5.255 C41.62,5.088 42,5.005 42.401,5.005 C42.8,5.005 43.179,5.083 43.54,5.236 C43.901,5.392 44.217,5.604 44.486,5.873 C44.757,6.144 44.97,6.46 45.125,6.821 C45.278,7.182 45.356,7.569 45.356,7.979 L45.375,13.778 L46.767,13.778 L46.748,7.979 C46.749,7.388 46.634,6.824 46.4,6.291 L46.4,6.291 Z" id="XMLID_14_"></path>
                        <path d="M59.091,5.189 C58.607,4.705 58.044,4.326 57.4,4.047 C56.756,3.771 56.067,3.632 55.333,3.632 C54.597,3.632 53.908,3.771 53.264,4.047 C52.62,4.325 52.056,4.705 51.573,5.189 C51.497,5.264 51.441,5.355 51.37,5.434 L51.37,8.947 C51.37,8.407 51.474,7.895 51.679,7.411 C51.887,6.927 52.17,6.505 52.531,6.144 C52.89,5.783 53.312,5.5 53.795,5.295 C54.279,5.087 54.791,4.986 55.333,4.986 C55.873,4.986 56.385,5.087 56.869,5.295 C57.353,5.5 57.773,5.783 58.133,6.144 C58.494,6.505 58.777,6.927 58.985,7.411 C59.19,7.895 59.294,8.407 59.294,8.947 C59.294,9.487 59.19,9.999 58.985,10.483 C58.777,10.967 58.494,11.389 58.133,11.75 C57.772,12.111 57.352,12.394 56.869,12.599 C56.385,12.807 55.873,12.908 55.333,12.908 C54.79,12.908 54.278,12.807 53.795,12.599 C53.311,12.394 52.889,12.111 52.531,11.75 C52.17,11.389 51.887,10.967 51.679,10.483 C51.474,9.999 51.37,9.487 51.37,8.947 L50.018,8.947 L50.018,17.624 L51.37,17.624 L51.37,12.212 C51.731,12.792 52.297,13.278 53.071,13.672 C53.845,14.064 54.597,14.262 55.333,14.262 C56.067,14.262 56.756,14.123 57.4,13.847 C58.044,13.569 58.608,13.189 59.091,12.705 C59.575,12.224 59.954,11.66 60.23,11.016 C60.508,10.372 60.645,9.681 60.645,8.947 C60.645,8.213 60.508,7.524 60.23,6.878 C59.955,6.234 59.575,5.67 59.091,5.189 L59.091,5.189 Z" id="XMLID_13_"></path>
                        <path d="M70.406,9.735 C70.406,10.148 70.328,10.532 70.172,10.893 C70.019,11.254 69.806,11.568 69.535,11.832 C69.264,12.096 68.95,12.304 68.589,12.46 C68.228,12.613 67.841,12.691 67.428,12.691 C67.015,12.691 66.633,12.613 66.279,12.46 C65.923,12.304 65.611,12.097 65.34,11.832 C65.071,11.568 64.859,11.254 64.703,10.893 C64.55,10.532 64.472,10.148 64.472,9.735 L64.472,9.716 L64.444,4.097 L63.061,4.097 L63.08,9.716 L63.08,9.735 C63.08,10.327 63.196,10.889 63.427,11.417 C63.661,11.945 63.972,12.405 64.366,12.797 C64.758,13.191 65.218,13.502 65.746,13.736 C66.274,13.967 66.836,14.083 67.428,14.083 C68.02,14.083 68.582,13.967 69.11,13.736 C69.638,13.502 70.098,13.191 70.492,12.797 C70.884,12.405 71.193,11.945 71.419,11.417 C71.643,10.889 71.756,10.327 71.756,9.735 L71.756,4.097 L70.256,4.097 L70.406,9.735 L70.406,9.735 Z" id="XMLID_12_"></path>
                        <path d="M83.951,6.878 C83.675,6.234 83.295,5.67 82.812,5.189 C82.328,4.705 81.765,4.326 81.121,4.047 C80.477,3.771 79.788,3.632 79.054,3.632 C78.318,3.632 77.629,3.771 76.985,4.047 C76.341,4.325 75.777,4.705 75.294,5.189 C75.218,5.264 75.162,5.355 75.091,5.434 L75.091,8.947 C75.091,8.407 75.195,7.895 75.4,7.411 C75.608,6.927 75.891,6.505 76.252,6.144 C76.611,5.783 77.033,5.5 77.516,5.295 C78,5.087 78.512,4.986 79.054,4.986 C79.594,4.986 80.106,5.087 80.59,5.295 C81.074,5.5 81.494,5.783 81.854,6.144 C82.215,6.505 82.498,6.927 82.706,7.411 C82.911,7.895 83.015,8.407 83.015,8.947 C83.015,9.487 82.911,9.999 82.706,10.483 C82.498,10.967 82.215,11.389 81.854,11.75 C81.493,12.111 81.073,12.394 80.59,12.599 C80.106,12.807 79.594,12.908 79.054,12.908 C78.511,12.908 77.999,12.807 77.516,12.599 C77.032,12.394 76.61,12.111 76.252,11.75 C75.891,11.389 75.608,10.967 75.4,10.483 C75.195,9.999 75.091,9.487 75.091,8.947 L73.739,8.947 L73.739,17.624 L75.091,17.624 L75.091,12.212 C75.452,12.792 76.018,13.278 76.792,13.672 C77.566,14.064 78.318,14.262 79.054,14.262 C79.788,14.262 80.477,14.123 81.121,13.847 C81.765,13.569 82.329,13.189 82.812,12.705 C83.296,12.224 83.675,11.66 83.951,11.016 C84.229,10.372 84.366,9.681 84.366,8.947 C84.366,8.213 84.229,7.525 83.951,6.878 L83.951,6.878 Z" id="XMLID_11_"></path>
                        <path d="M51.37,5.435 L51.37,4.097 L50.018,4.097 L50.018,8.947 C50.018,8.213 50.155,7.524 50.433,6.878 C50.666,6.335 50.99,5.862 51.37,5.435 L51.37,5.435 Z" id="XMLID_10_"></path>
                        <path d="M51.37,5.435 C50.99,5.863 50.666,6.335 50.433,6.879 C50.155,7.525 50.018,8.214 50.018,8.948 L51.37,8.948 L51.37,5.435 L51.37,5.435 Z" id="XMLID_9_"></path>
                        <path d="M75.09,5.435 L75.09,4.097 L73.738,4.097 L73.738,8.947 C73.738,8.213 73.875,7.524 74.153,6.878 C74.387,6.335 74.71,5.862 75.09,5.435 L75.09,5.435 Z" id="XMLID_4_"></path>
                        <path d="M75.09,5.435 C74.71,5.863 74.386,6.335 74.153,6.879 C73.875,7.525 73.738,8.214 73.738,8.948 L75.09,8.948 L75.09,5.435 L75.09,5.435 Z" id="XMLID_3_"></path>
                    </g>
                </g>
                <path d="M48.104,43.5 C46.785,24.265 38.061,12.953 17.402,12.953 L17.402,12.953 L12.068,12.953 L12.068,21.091 L12.068,43.723 L12.068,43.795 L18.587,43.795 L18.587,43.723 L18.587,43.175 L18.587,21.091 C34.444,21.322 39.738,27.339 40.594,43.5 L48.104,43.5 L48.104,43.5 Z" id="XMLID_5_" fill="#FAFAFA"></path>
                <path d="M28.662,37 C27.224,46.92 23.223,50.177 7.034,49.502 L7.034,3.393 L7.166,0.106 L5.986,1.634 L0.651,7.937 L0.651,56.768 L5.985,56.768 C26.51,58.207 33.765,51.459 35.994,37 L28.662,37 L28.662,37 Z" id="XMLID_6_" fill="#FAFAFA"></path>
            </g>
        </g>
    </g>
</svg>