<svg id="Layer_1" data-name="Layer 1" xmlns="http://www.w3.org/2000/svg" viewBox="0 0 43.44 57.16"><defs><style>.cls-1{fill:none;stroke:#fff;stroke-miterlimit:10;}</style></defs><title>brainpup_icon_headW</title><g id="_Group_" data-name="&lt;Group&gt;"><path id="_Path_" data-name="&lt;Path&gt;" class="cls-1" d="M115.8,78.53a6.52,6.52,0,0,0,0,1.89,7.7,7.7,0,0,0,.91,2.42,17.9,17.9,0,0,1,1.13,1.89,5.41,5.41,0,0,1,.15,2.64c-0.22,1.58-.77,1.89-0.6,2.79,0.13,0.7.56,1,1.43,1.89,2.36,2.26,3.54,3.4,3.47,4.3-0.08,1.09-2.67,3.48-2,2.64a1.3,1.3,0,0,0-1,.83c-0.08.44,0.37,0.68,0.83,1.66a2,2,0,0,1,.38,1.51c-0.3.69-1.52,0.36-1.89,1.13a1.3,1.3,0,0,0,.08,1.13c0.2,0.35.44,0.3,0.68,0.68a1.3,1.3,0,0,1,.15,1.13,4.12,4.12,0,0,1-.91.76,2.18,2.18,0,0,0-.38,1.43,10.93,10.93,0,0,0,.38,2.34,3.51,3.51,0,0,1-2.79,3.25c-0.27,0-.31,0-1.13,0A9.09,9.09,0,0,0,113,115a5.29,5.29,0,0,0-1.89.83,5.44,5.44,0,0,0-1.59,1.81,6.37,6.37,0,0,0-.38,4.23c0.59,3.3,2.44,4.77,1.81,5.66-0.44.62-1.7,0.43-2,.38-8.08-1.17-23.95-.67-24.76-0.38a0.11,0.11,0,0,1-.08,0c-0.3-.16.48-2.6,1.66-4.68,0.78-1.37.95-1.2,2.11-3a16.3,16.3,0,0,0,2-3.85,8.44,8.44,0,0,0,.3-5.44c-0.35-1-.81-1.48-2.94-3.78l-3.78-4.08c-3.47-3.83-3.6-9.5-3.62-10.8a20,20,0,0,1,5.59-14,20.67,20.67,0,0,1,9.29-5.36C105.5,69.66,115.9,76,115.8,78.53Z" transform="translate(-79.36 -71.32)"/><path id="_Compound_Path_" data-name="&lt;Compound Path&gt;" class="cls-1" d="M99.06,86.92l2-1L100.46,84l-2.28.31L97,83l1.13-1.91-1.62-1.24-1.58,1.58L93.3,81,93,78.67H91l-0.27,2.24-1.62.72L87.4,80l-1.52,1.1,1,1.95-1,1.44-2.25-.31L83,86,85.07,87l0,1.77L83,89.9l0.56,1.77,2.61-.21L87,92.68l-1.09,2,1.6,1.19L89,94.32l1.67,0.45,0.39,2.16h2l0.29-2.18,1.69-.62,1.58,1.65,1.54-1.15-1-2,1-1.36,2.24,0.14,0.62-1.69-2-1.09V86.92Zm-7,4a3.1,3.1,0,1,1,3.1-3.1A3.1,3.1,0,0,1,92,90.9Z" transform="translate(-79.36 -71.32)"/><path id="_Compound_Path_2" data-name="&lt;Compound Path&gt;" class="cls-1" d="M111.84,82.17l1.08-.7-0.43-1.29-1.35.25-0.82-.82,0.25-1.47-1.21-.53-0.84,1.12-1.19,0-0.78-1.17-1.35.63,0.45,1.27-0.92.8-1.41-.16-0.51,1.23L104,82.13v1l-1.15.69,0.51,1.47,1.33-.25,0.74,0.78-0.18,1.31,1.17,0.63,0.88-1.14h1.19l0.72,1.14,1.27-.49L110.22,86l0.8-.8,1.41,0.1,0.49-1.12-1.08-.7V82.17Zm-4,2.59a2.1,2.1,0,1,1,2.1-2.1A2.1,2.1,0,0,1,107.86,84.75Z" transform="translate(-79.36 -71.32)"/><path id="_Compound_Path_3" data-name="&lt;Compound Path&gt;" class="cls-1" d="M109.06,92.16l0.83-.54-0.33-1-1,.2-0.63-.63,0.2-1.13-0.93-.41-0.65.86-0.92,0-0.6-.9-1,.48,0.35,1-0.71.62-1.08-.12-0.39.95L103,92.13v0.8l-0.89.53,0.39,1.13,1-.2L104.1,95,104,96l0.9,0.48,0.68-.87h0.92L107,96.49l1-.38-0.18-1,0.62-.62,1.08,0.08,0.38-.86-0.83-.54v-1Zm-3.06,2a1.61,1.61,0,1,1,1.61-1.61A1.61,1.61,0,0,1,106,94.15Z" transform="translate(-79.36 -71.32)"/></g></svg>