<svg id="Layer_1" data-name="Layer 1" xmlns="http://www.w3.org/2000/svg" viewBox="0 0 144.04 131.6"><defs><style>.cls-1,.cls-2{fill:none;}.cls-1,.cls-2,.cls-4,.cls-5{stroke:#f9f9f9;stroke-miterlimit:10;}.cls-1,.cls-4,.cls-5{stroke-width:2px;}.cls-2{stroke-width:0.72px;}.cls-3,.cls-5{fill:#f9f9f9;}.cls-4{fill:#fcfcfc;}.cls-4,.cls-5{opacity:0.3;isolation:isolate;}</style></defs><title>brainpup_icon_memeberphoto</title><polygon id="_Path_" data-name="&lt;Path&gt;" class="cls-1" points="12.01 58.4 14.41 64 10.01 68.9 3.41 67.6 1.21 74 7.11 77.5 6.91 84.1 1.71 87.6 4.91 93.9 11.31 92 15.61 96.3 14.61 102.7 21.11 104.9 24.61 98.9 30.81 98.9 34.31 104.5 40.51 101.5 38.61 95 43.11 90.4 49.61 91.8 52.01 85.1 46.01 82 46.01 75.4 51.21 71.8 47.91 65.8 41.61 68.1 37.41 63.5 38.31 56.7 32.11 54.7 29.31 59.9 22.31 59.8 19.11 54.7 12.01 58.4"/><circle id="_Path_2" data-name="&lt;Path&gt;" class="cls-2" cx="26.61" cy="79.8" r="8"/><polygon id="_Path_3" data-name="&lt;Path&gt;" class="cls-1" points="98.61 92.4 97.91 96.9 95.01 98.3 91.31 94.8 85.91 99.9 88.51 103.8 87.31 106.6 82.21 106.6 82.21 114.4 86.81 114.9 87.91 117.8 84.21 121 89.41 126.8 93.21 124.1 96.11 125.8 96.11 130.6 103.71 130.6 104.51 125.9 107.31 125 110.81 128.5 116.51 123.6 113.91 119.6 115.11 116.6 120.21 116.5 120.21 109.1 115.81 108.4 114.61 105.2 118.11 102 112.81 96.4 109.01 99.2 106.01 97.5 106.01 92.4 98.61 92.4"/><circle id="_Path_4" data-name="&lt;Path&gt;" class="cls-2" cx="101.21" cy="111.5" r="3.7"/><g id="_Group_" data-name="&lt;Group&gt;"><path class="cls-3" d="M111,35.9A57.6,57.6,0,0,0,46.6,84.2c-0.1.9,1.3,1.4,1.4,0.4a56.23,56.23,0,0,1,63-47.2c1,0.1,1-1.4,0-1.5h0Z" transform="translate(-22.89 -35.4)"/></g><g id="_Group_2" data-name="&lt;Group&gt;"><path class="cls-3" d="M98.7,154A60.84,60.84,0,0,1,69,140.7a0.78,0.78,0,0,0-1.1,1.1,62.48,62.48,0,0,0,30.4,13.7c1,0.1,1.4-1.3.4-1.5h0Z" transform="translate(-22.89 -35.4)"/></g><g id="_Group_3" data-name="&lt;Group&gt;"><path class="cls-3" d="M139.7,46.8c31.2,21.4,34.6,66.3,7.1,92.3a0.78,0.78,0,0,0,1.1,1.1,61.08,61.08,0,0,0-7.4-94.6c-0.9-.7-1.6.6-0.8,1.2h0Z" transform="translate(-22.89 -35.4)"/></g><polygon id="_Path_5" data-name="&lt;Path&gt;" class="cls-4" points="12.01 58.4 14.41 64 10.01 68.9 3.41 67.6 1.21 74 7.11 77.5 6.91 84.1 1.71 87.6 4.91 93.9 11.31 92 15.61 96.3 14.61 102.7 21.11 104.9 24.61 98.9 30.81 98.9 34.31 104.5 40.51 101.5 38.61 95 43.11 90.4 49.61 91.8 52.01 85.1 46.01 82 46.01 75.4 51.21 71.8 47.91 65.8 41.61 68.1 37.41 63.5 38.31 56.7 32.11 54.7 29.31 59.9 22.31 59.8 19.11 54.7 12.01 58.4"/><polygon id="_Path_6" data-name="&lt;Path&gt;" class="cls-5" points="98.61 92.4 97.91 96.9 95.01 98.3 91.31 94.8 85.91 99.9 88.51 103.8 87.31 106.6 82.21 106.6 82.21 114.4 86.81 114.9 87.91 117.8 84.21 121 89.41 126.8 93.21 124.1 96.11 125.8 96.11 130.6 103.71 130.6 104.51 125.9 107.31 125 110.81 128.5 116.51 123.6 113.91 119.6 115.11 116.6 120.21 116.5 120.21 109.1 115.81 108.4 114.61 105.2 118.11 102 112.81 96.4 109.01 99.2 106.01 97.5 106.01 92.4 98.61 92.4"/></svg>