<svg id="Layer_1" data-name="Layer 1" xmlns="http://www.w3.org/2000/svg" viewBox="0 0 43.44 57.16"><defs><style>.cls-1{fill:none;stroke:#000;stroke-miterlimit:10;}</style></defs><title>brainpup_icon_head</title><g id="_Group_" data-name="&lt;Group&gt;"><path id="_Path_" data-name="&lt;Path&gt;" class="cls-1" d="M115.13,78.26a6.52,6.52,0,0,0,0,1.89,7.7,7.7,0,0,0,.91,2.42,17.9,17.9,0,0,1,1.13,1.89,5.41,5.41,0,0,1,.15,2.64c-0.22,1.58-.77,1.89-0.6,2.79,0.13,0.7.56,1,1.43,1.89,2.36,2.26,3.54,3.4,3.47,4.3-0.08,1.09-2.67,3.48-2,2.64a1.3,1.3,0,0,0-1,.83c-0.08.44,0.37,0.68,0.83,1.66a2,2,0,0,1,.38,1.51c-0.3.69-1.52,0.36-1.89,1.13a1.3,1.3,0,0,0,.08,1.13c0.2,0.35.44,0.3,0.68,0.68a1.3,1.3,0,0,1,.15,1.13,4.12,4.12,0,0,1-.91.76,2.18,2.18,0,0,0-.38,1.43,10.93,10.93,0,0,0,.38,2.34,3.51,3.51,0,0,1-2.79,3.25c-0.27,0-.31,0-1.13,0a9.09,9.09,0,0,0-1.74.15,5.29,5.29,0,0,0-1.89.83,5.44,5.44,0,0,0-1.59,1.81,6.37,6.37,0,0,0-.38,4.23c0.59,3.3,2.44,4.77,1.81,5.66-0.44.62-1.7,0.43-2,.38-8.08-1.17-23.95-.67-24.76-0.38a0.11,0.11,0,0,1-.08,0c-0.3-.16.48-2.6,1.66-4.68,0.78-1.37.95-1.2,2.11-3a16.3,16.3,0,0,0,2-3.85,8.44,8.44,0,0,0,.3-5.44c-0.35-1-.81-1.48-2.94-3.78l-3.78-4.08c-3.47-3.83-3.6-9.5-3.62-10.8a20,20,0,0,1,5.59-14,20.67,20.67,0,0,1,9.29-5.36C104.83,69.38,115.23,75.74,115.13,78.26Z" transform="translate(-78.69 -71.04)"/><path id="_Compound_Path_" data-name="&lt;Compound Path&gt;" class="cls-1" d="M98.39,86.64l2-1-0.62-1.83-2.28.31-1.15-1.32,1.13-1.91L95.86,79.6l-1.58,1.58-1.65-.43-0.35-2.37h-2L90,80.63l-1.62.72-1.67-1.6-1.52,1.1,1,1.95-1,1.44L83,83.92l-0.62,1.77,2.06,1.07,0,1.77-2,1.09,0.56,1.77,2.61-.21,0.82,1.21-1.09,2,1.6,1.19L88.37,94,90,94.5l0.39,2.16h2l0.29-2.18,1.69-.62L96,95.5l1.54-1.15-1-2,1-1.36,2.24,0.14,0.62-1.69-2-1.09V86.64Zm-7,4a3.1,3.1,0,1,1,3.1-3.1A3.1,3.1,0,0,1,91.38,90.62Z" transform="translate(-78.69 -71.04)"/><path id="_Compound_Path_2" data-name="&lt;Compound Path&gt;" class="cls-1" d="M111.17,81.89l1.08-.7-0.43-1.29-1.35.25-0.82-.82,0.25-1.47-1.21-.53-0.84,1.12-1.19,0-0.78-1.17-1.35.63L105,79.13l-0.92.8-1.41-.16L102.13,81l1.15,0.84v1l-1.15.69,0.51,1.47L104,84.8l0.74,0.78-0.18,1.31,1.17,0.63,0.88-1.14h1.19l0.72,1.14,1.27-.49-0.23-1.35,0.8-.8,1.41,0.1,0.49-1.12-1.08-.7V81.89Zm-4,2.59a2.1,2.1,0,1,1,2.1-2.1A2.1,2.1,0,0,1,107.19,84.48Z" transform="translate(-78.69 -71.04)"/><path id="_Compound_Path_3" data-name="&lt;Compound Path&gt;" class="cls-1" d="M108.39,91.88l0.83-.54-0.33-1-1,.2-0.63-.63,0.2-1.13-0.93-.41-0.65.86-0.92,0-0.6-.9-1,.48,0.35,1-0.71.62-1.08-.12-0.39.95,0.89,0.65v0.8l-0.89.53,0.39,1.13,1-.2,0.57,0.6-0.14,1,0.9,0.48,0.68-.87h0.92l0.56,0.87,1-.38-0.18-1,0.62-.62,1.08,0.08,0.38-.86-0.83-.54v-1Zm-3.06,2a1.61,1.61,0,1,1,1.61-1.61A1.61,1.61,0,0,1,105.34,93.87Z" transform="translate(-78.69 -71.04)"/></g></svg>