<?xml version="1.0" encoding="utf-8"?>
<!-- Generator: Adobe Illustrator 17.0.0, SVG Export Plug-In . SVG Version: 6.00 Build 0)  -->
<!DOCTYPE svg PUBLIC "-//W3C//DTD SVG 1.1//EN" "http://www.w3.org/Graphics/SVG/1.1/DTD/svg11.dtd">
<svg version="1.1" id="图层_1" xmlns="http://www.w3.org/2000/svg" xmlns:xlink="http://www.w3.org/1999/xlink" x="0px" y="0px"
	 width="288px" height="288px" viewBox="0 0 288 288" enable-background="new 0 0 288 288" xml:space="preserve">
<path id="XMLID_32_" d="M80.412,169.818"/>
<path id="XMLID_31_" d="M80.269,169.803"/>
<rect id="XMLID_30_" x="96.067" y="171.759" fill="#FAFAFA" width="6.519" height="11.32"/>
<g id="XMLID_34_">
	<polyline id="XMLID_27_" fill="#FFFFFF" points="111.485,178.219 111.485,182.778 112.638,182.778 112.638,178.219 	"/>
	<g id="XMLID_35_">
		<path id="XMLID_50_" fill="#FFFFFF" d="M120.547,174.169c-0.484-0.481-1.047-0.861-1.691-1.139
			c-0.644-0.276-1.333-0.415-2.067-0.415c-0.736,0-1.489,0.196-2.262,0.59c-0.774,0.394-1.34,0.88-1.701,1.458v-5.409h-1.352v8.677
			c0,0.734,0.137,1.423,0.415,2.067c0.276,0.646,0.656,1.208,1.139,1.691c0.484,0.484,1.047,0.863,1.691,1.139
			c0.644,0.278,1.333,0.418,2.069,0.418c0.734,0,1.423-0.139,2.067-0.418c0.644-0.276,1.208-0.656,1.691-1.139
			c0.484-0.484,0.863-1.045,1.139-1.691c0.278-0.644,0.415-1.333,0.415-2.067s-0.137-1.425-0.415-2.069
			C121.411,175.216,121.031,174.653,120.547,174.169z M120.441,179.465c-0.208,0.484-0.491,0.906-0.852,1.267
			c-0.361,0.361-0.781,0.644-1.264,0.849c-0.484,0.208-0.996,0.309-1.536,0.309c-0.543,0-1.055-0.101-1.538-0.309
			c-0.481-0.205-0.904-0.488-1.264-0.849c-0.361-0.361-0.644-0.783-0.852-1.267c-0.205-0.484-0.309-0.996-0.309-1.536
			c0-0.543,0.104-1.055,0.309-1.536c0.208-0.484,0.491-0.906,0.852-1.267c0.361-0.361,0.783-0.644,1.264-0.849
			c0.484-0.208,0.996-0.311,1.538-0.311c0.54,0,1.052,0.104,1.536,0.311c0.484,0.205,0.904,0.488,1.264,0.849
			c0.361,0.361,0.644,0.783,0.852,1.267c0.205,0.481,0.309,0.993,0.309,1.536C120.75,178.47,120.646,178.982,120.441,179.465z"/>
		<path id="XMLID_19_" fill="#FFFFFF" d="M126.172,174.661c-0.075,0.078-0.149,0.182-0.212,0.309v-1.835h-1.333l0.019,9.663h1.333
			v-4.388c0-0.54,0.104-1.052,0.309-1.536c0.208-0.484,0.491-0.904,0.852-1.264c0.361-0.361,0.783-0.644,1.264-0.852
			c0.484-0.205,0.996-0.309,1.538-0.309v-1.352c-0.736,0-1.425,0.137-2.069,0.415C127.229,173.788,126.663,174.173,126.172,174.661z
			"/>
		<path id="XMLID_46_" fill="#FFFFFF" d="M139.813,174.187c-0.484-0.481-1.047-0.861-1.691-1.139
			c-0.644-0.276-1.333-0.415-2.067-0.415c-0.736,0-1.425,0.139-2.069,0.415c-0.644,0.278-1.208,0.658-1.691,1.139
			c-0.481,0.484-0.863,1.047-1.139,1.691s-0.415,1.335-0.415,2.069c0,0.734,0.139,1.423,0.415,2.067
			c0.276,0.646,0.658,1.208,1.139,1.691c0.484,0.484,1.047,0.863,1.691,1.139c0.644,0.278,1.333,0.418,2.069,0.418
			c0.734,0,1.423-0.139,2.067-0.418c0.644-0.276,1.205-0.653,1.682-1.13c0.078-0.078,0.149-0.146,0.212-0.212v1.295h1.354v-4.85
			c0-0.734-0.139-1.425-0.418-2.069C140.677,175.234,140.297,174.67,139.813,174.187z M140.016,178.122
			c-0.026,0.477-0.13,0.934-0.309,1.371c-0.205,0.477-0.491,0.896-0.849,1.257c-0.361,0.361-0.783,0.644-1.267,0.849
			c-0.484,0.208-0.996,0.309-1.536,0.309c-0.543,0-1.055-0.101-1.538-0.309c-0.481-0.205-0.904-0.488-1.264-0.849
			c-0.361-0.361-0.644-0.783-0.852-1.267c-0.205-0.484-0.309-0.996-0.309-1.536c0-0.543,0.104-1.055,0.309-1.536
			c0.208-0.484,0.491-0.906,0.852-1.267c0.361-0.361,0.783-0.644,1.264-0.849c0.484-0.208,0.996-0.311,1.538-0.311
			c0.54,0,1.052,0.104,1.536,0.311c0.484,0.205,0.906,0.488,1.267,0.849c0.359,0.361,0.644,0.783,0.849,1.267
			c0.205,0.481,0.309,0.993,0.309,1.536V178.122z"/>
		<path id="XMLID_16_" fill="#FFFFFF" d="M145.352,169.252c-0.231,0-0.425,0.075-0.58,0.231c-0.153,0.153-0.231,0.347-0.231,0.58
			c0,0.231,0.078,0.425,0.231,0.578c0.156,0.156,0.349,0.234,0.58,0.234s0.425-0.078,0.58-0.234
			c0.153-0.153,0.231-0.347,0.231-0.578c0-0.234-0.078-0.427-0.231-0.58C145.776,169.327,145.583,169.252,145.352,169.252z"/>
		<rect id="XMLID_15_" x="144.656" y="173.116" fill="#FFFFFF" width="1.352" height="9.663"/>
		<path id="XMLID_14_" fill="#FFFFFF" d="M157.4,175.291c-0.231-0.536-0.543-1-0.937-1.392c-0.392-0.394-0.854-0.705-1.382-0.939
			c-0.528-0.231-1.088-0.347-1.68-0.347c-0.297,0-0.594,0.033-0.889,0.097c-0.297,0.064-0.578,0.158-0.84,0.281
			c-0.264,0.123-0.507,0.269-0.727,0.443c-0.219,0.175-0.392,0.366-0.521,0.571v-0.889h-1.352v9.663h1.371l-0.019-5.799
			c0-0.373,0.08-0.741,0.243-1.102c0.16-0.359,0.375-0.679,0.646-0.955c0.271-0.276,0.585-0.5,0.946-0.668
			c0.361-0.167,0.741-0.25,1.142-0.25c0.399,0,0.778,0.078,1.139,0.231c0.361,0.156,0.677,0.368,0.946,0.637
			c0.271,0.271,0.484,0.587,0.639,0.948c0.153,0.361,0.231,0.748,0.231,1.158l0.019,5.799h1.392l-0.019-5.799
			C157.749,176.388,157.634,175.824,157.4,175.291z"/>
		<path id="XMLID_13_" fill="#FFFFFF" d="M170.091,174.189c-0.484-0.484-1.047-0.863-1.691-1.142
			c-0.644-0.276-1.333-0.415-2.067-0.415c-0.736,0-1.425,0.139-2.069,0.415c-0.644,0.278-1.208,0.658-1.691,1.142
			c-0.076,0.075-0.132,0.166-0.203,0.245v3.513c0-0.54,0.104-1.052,0.309-1.536c0.208-0.484,0.491-0.906,0.852-1.267
			c0.359-0.361,0.781-0.644,1.264-0.849c0.484-0.208,0.996-0.309,1.538-0.309c0.54,0,1.052,0.101,1.536,0.309
			c0.484,0.205,0.904,0.488,1.264,0.849c0.361,0.361,0.644,0.783,0.852,1.267c0.205,0.484,0.309,0.996,0.309,1.536
			c0,0.54-0.104,1.052-0.309,1.536c-0.208,0.484-0.491,0.906-0.852,1.267c-0.361,0.361-0.781,0.644-1.264,0.849
			c-0.484,0.208-0.996,0.309-1.536,0.309c-0.543,0-1.055-0.101-1.538-0.309c-0.484-0.205-0.906-0.488-1.264-0.849
			c-0.361-0.361-0.644-0.783-0.852-1.267c-0.205-0.484-0.309-0.996-0.309-1.536h-1.352v8.677h1.352v-5.412
			c0.361,0.58,0.927,1.066,1.701,1.46c0.774,0.392,1.526,0.59,2.262,0.59c0.734,0,1.423-0.139,2.067-0.415
			c0.644-0.278,1.208-0.658,1.691-1.142c0.484-0.481,0.863-1.045,1.139-1.689c0.278-0.644,0.415-1.335,0.415-2.069
			c0-0.734-0.137-1.423-0.415-2.069C170.955,175.234,170.575,174.67,170.091,174.189z"/>
		<path id="XMLID_12_" fill="#FFFFFF" d="M181.406,178.735c0,0.413-0.078,0.797-0.234,1.158c-0.153,0.361-0.366,0.675-0.637,0.939
			c-0.271,0.264-0.585,0.472-0.946,0.628c-0.361,0.153-0.748,0.231-1.161,0.231c-0.413,0-0.795-0.078-1.149-0.231
			c-0.356-0.156-0.668-0.363-0.939-0.628c-0.269-0.264-0.481-0.578-0.637-0.939c-0.153-0.361-0.231-0.745-0.231-1.158v-0.019
			l-0.028-5.619h-1.383l0.019,5.619v0.019c0,0.592,0.116,1.154,0.347,1.682c0.234,0.528,0.545,0.988,0.939,1.38
			c0.392,0.394,0.852,0.705,1.38,0.939c0.528,0.231,1.09,0.347,1.682,0.347c0.592,0,1.154-0.116,1.682-0.347
			c0.528-0.234,0.988-0.545,1.382-0.939c0.392-0.392,0.701-0.852,0.927-1.38c0.224-0.528,0.337-1.09,0.337-1.682v-5.638h-1.5
			L181.406,178.735z"/>
		<path id="XMLID_11_" fill="#FFFFFF" d="M194.951,175.878c-0.276-0.644-0.656-1.208-1.139-1.689
			c-0.484-0.484-1.047-0.863-1.691-1.142c-0.644-0.276-1.333-0.415-2.067-0.415c-0.736,0-1.425,0.139-2.069,0.415
			c-0.644,0.278-1.208,0.658-1.691,1.142c-0.076,0.075-0.132,0.166-0.203,0.245v3.513c0-0.54,0.104-1.052,0.309-1.536
			c0.208-0.484,0.491-0.906,0.852-1.267c0.359-0.361,0.781-0.644,1.264-0.849c0.484-0.208,0.996-0.309,1.538-0.309
			c0.54,0,1.052,0.101,1.536,0.309c0.484,0.205,0.904,0.488,1.264,0.849c0.361,0.361,0.644,0.783,0.852,1.267
			c0.205,0.484,0.309,0.996,0.309,1.536c0,0.54-0.104,1.052-0.309,1.536c-0.208,0.484-0.491,0.906-0.852,1.267
			c-0.361,0.361-0.781,0.644-1.264,0.849c-0.484,0.208-0.996,0.309-1.536,0.309c-0.543,0-1.055-0.101-1.538-0.309
			c-0.484-0.205-0.906-0.488-1.264-0.849c-0.361-0.361-0.644-0.783-0.852-1.267c-0.205-0.484-0.309-0.996-0.309-1.536h-1.352v8.677
			h1.352v-5.412c0.361,0.58,0.927,1.066,1.701,1.46c0.774,0.392,1.526,0.59,2.262,0.59c0.734,0,1.423-0.139,2.067-0.415
			c0.644-0.278,1.208-0.658,1.691-1.142c0.484-0.481,0.863-1.045,1.139-1.689c0.278-0.644,0.415-1.335,0.415-2.069
			C195.366,177.213,195.229,176.525,194.951,175.878z"/>
		<path id="XMLID_10_" fill="#FFFFFF" d="M162.37,174.435v-1.338h-1.352v4.85c0-0.734,0.137-1.423,0.415-2.069
			C161.666,175.335,161.99,174.862,162.37,174.435z"/>
		<path id="XMLID_9_" fill="#FFFFFF" d="M162.37,174.435c-0.38,0.428-0.704,0.9-0.937,1.444c-0.278,0.646-0.415,1.335-0.415,2.069
			h1.352V174.435z"/>
		<path id="XMLID_4_" fill="#FFFFFF" d="M186.09,174.435v-1.338h-1.352v4.85c0-0.734,0.137-1.423,0.415-2.069
			C185.387,175.335,185.71,174.862,186.09,174.435z"/>
		<path id="XMLID_3_" fill="#FFFFFF" d="M186.09,174.435c-0.38,0.428-0.704,0.9-0.937,1.444c-0.278,0.646-0.415,1.335-0.415,2.069
			h1.352V174.435z"/>
	</g>
</g>
<path id="XMLID_5_" fill="#FAFAFA" d="M132.104,155.5c-1.319-19.235-10.043-30.547-30.702-30.547v0h-5.334v8.138v22.632v0.072h6.519
	v-0.072v-0.548v-22.084c15.857,0.231,21.151,6.248,22.007,22.409H132.104z"/>
<path id="XMLID_6_" fill="#FAFAFA" d="M112.662,149c-1.438,9.92-5.439,13.177-21.628,12.502v-46.109l0.132-3.287l-1.18,1.528
	l-5.335,6.303v48.831l5.334,0c20.525,1.439,27.78-5.309,30.009-19.768H112.662z"/>
</svg>
